Coordinates
version=1
nRows=11
nColumns=63
inDegrees=yes

Units are S.I. units (second, meters, Newtons, ...)
If the header above contains a line with 'inDegrees', this indicates whether rotational values are in degrees (yes) or radians (no).

endheader
time	pelvis_tilt	pelvis_list	pelvis_rotation	pelvis_tx	pelvis_ty	pelvis_tz	hip_flexion_r	hip_adduction_r	hip_rotation_r	knee_angle_r	knee_angle_r_beta	ankle_angle_r	subtalar_angle_r	mtp_angle_r	hip_flexion_l	hip_adduction_l	hip_rotation_l	knee_angle_l	knee_angle_l_beta	ankle_angle_l	subtalar_angle_l	mtp_angle_l	L5_S1_Flex_Ext	L5_S1_Lat_Bending	L5_S1_axial_rotation	L4_L5_Flex_Ext	L4_L5_Lat_Bending	L4_L5_axial_rotation	L3_L4_Flex_Ext	L3_L4_Lat_Bending	L3_L4_axial_rotation	L2_L3_Flex_Ext	L2_L3_Lat_Bending	L2_L3_axial_rotation	L1_L2_Flex_Ext	L1_L2_Lat_Bending	L1_L2_axial_rotation	L1_T12_Flex_Ext	L1_T12_Lat_Bending	L1_T12_axial_rotation	Abs_r3	Abs_r2	Abs_r1	Abs_t1	Abs_t2	neck_flexion	neck_bending	neck_rotation	arm_flex_r	arm_add_r	arm_rot_r	elbow_flex_r	pro_sup_r	wrist_flex_r	wrist_dev_r	arm_flex_l	arm_add_l	arm_rot_l	elbow_flex_l	pro_sup_l	wrist_flex_l	wrist_dev_l
      2.35714286	     -0.45069674	     -5.36527126	    109.36790515	      0.35796840	      0.52015456	      0.94819981	      5.92099336	     -5.91788850	    -13.10289045	     11.83311403	      0.20652680	     21.68155437	     17.42285945	      0.00000000	      8.42116273	      4.15726640	     -9.82048577	     13.31161730	      0.23233155	     19.56409189	      1.67224975	      0.00000000	      0.23113656	     -0.71620312	      0.66618122	      0.42924371	     -0.95255015	      0.70781754	      0.37973426	     -1.74137627	      0.70781754	      0.26416598	     -1.74137627	      0.58290856	      0.21463341	     -1.46048140	      0.54127224	      0.13207143	     -1.10939863	      0.49963591	      1.65098534	     -8.10183294	      3.70510007	      0.00000000	      0.00000000	     14.10020356	      4.21411660	    -14.81807969	      4.79254399	    -15.56242431	     43.46346174	     75.56141912	     20.35677677	    -19.76023465	     14.78045243	     10.87232823	    -14.39262605	     48.44908201	     78.31508054	     84.84887651	      4.94807004	     23.27279994
      2.38095238	     -0.36475828	     -5.48348990	    109.54844851	      0.35823884	      0.51995599	      0.94883008	      6.12649883	     -5.89085154	    -13.36538932	     11.92190325	      0.20807646	     21.65176059	     17.47848096	      0.00000000	      8.80204579	      4.36849812	     -7.29127889	     13.71121546	      0.23930585	     18.85856772	     -1.97429843	      0.00000000	      0.24619325	     -0.72496915	      0.61693720	      0.45720548	     -0.96420897	      0.65549577	      0.40447088	     -1.76268998	      0.65549577	      0.28137426	     -1.76268998	      0.53982005	      0.22861505	     -1.47835709	      0.50126147	      0.14067482	     -1.12297721	      0.46270290	      1.75853373	     -8.20099599	      3.43121962	      0.00000000	      0.00000000	     14.25389886	      4.50729535	    -15.11127180	      5.24016653	    -16.41228277	     46.11365679	     77.95168074	     14.06394456	    -25.39689718	     12.52900987	     11.00107114	    -15.09597320	     49.24324205	     80.34435471	     87.11540904	      9.22330519	     24.28503337
      2.40476190	     -0.25326324	     -5.50753043	    109.90364021	      0.35840689	      0.51974690	      0.94940664	      6.17059754	     -5.80563636	    -13.74322590	     11.93051138	      0.20822671	     21.67399889	     17.59288020	      0.00000000	      9.05161291	      4.49389983	     -5.14196875	     14.07964549	      0.24573617	     18.24542863	     -4.83459236	      0.00000000	      0.24558686	     -0.72646973	      0.52027981	      0.45607936	     -0.96620475	      0.55279729	      0.40347466	     -1.76633851	      0.55279729	      0.28068123	     -1.76633851	      0.45524483	      0.22805196	     -1.48141708	      0.42272734	      0.14032833	     -1.12530162	      0.39020985	      1.75420240	     -8.21797092	      2.89364020	      0.00000000	      0.00000000	     14.32974173	      4.66090338	    -15.28167643	      6.23145327	    -17.14501028	     49.16542014	     79.32082364	      9.69825947	    -28.33551370	     11.52893048	     11.29739513	    -15.67391581	     49.82855510	     81.83644195	     87.82126826	     12.18381535	     25.12034618
      2.42857143	     -0.19931404	     -5.54836876	    110.28156419	      0.35843905	      0.51935453	      0.94969875	      6.19142960	     -5.77913382	    -14.11455438	     11.95703152	      0.20868957	     21.75353177	     17.61159253	      0.00000000	      9.26165994	      4.56696295	     -3.97948215	     14.47516003	      0.25263920	     17.97983610	     -6.23440782	      0.00000000	      0.24185605	     -0.73497831	      0.44656576	      0.44915088	     -0.97752115	      0.47447612	      0.39734531	     -1.78702626	      0.47447612	      0.27641728	     -1.78702626	      0.39074504	      0.22458753	     -1.49876777	      0.36283468	      0.13819655	     -1.13848140	      0.33492432	      1.72755361	     -8.31422164	      2.48366478	      0.00000000	      0.00000000	     14.53070927	      4.76732210	    -15.53590198	      7.62690681	    -17.93226817	     52.45096145	     79.99775141	      7.69736503	    -28.70786156	     11.78176024	     11.70925723	    -16.20649499	     50.44750949	     82.98516567	     87.90916641	     12.90423301	     25.55837683
      2.45238095	     -0.10808155	     -5.70068841	    110.18357363	      0.35903273	      0.51887814	      0.94932301	      6.18491325	     -5.59748077	    -13.58443823	     11.47444334	      0.20026682	     21.48705122	     17.27189465	      0.00000000	      9.47809146	      4.40725835	     -4.34600615	     14.68123995	      0.25623598	     18.10323854	     -5.83663111	      0.00000000	      0.26060958	     -0.73466938	      0.54689452	      0.48397806	     -0.97711028	      0.58107542	      0.42815548	     -1.78627514	      0.58107542	      0.29785069	     -1.78627514	      0.47853270	      0.24200206	     -1.49813780	      0.44435180	      0.14891232	     -1.13800287	      0.41017089	      1.86150819	     -8.31072699	      3.04166324	      0.00000000	      0.00000000	     15.04435708	      4.96255699	    -15.15157421	      8.14797839	    -18.56929183	     54.04501851	     80.48701418	      9.24052440	    -27.71219339	     12.30193460	     12.70171247	    -16.68808210	     51.92205182	     83.54616606	     87.48985580	     12.80735450	     25.35506394
      2.47619048	     -0.13885493	     -5.60021273	    110.79688328	      0.35814706	      0.51876662	      0.94972753	      6.13174958	     -5.75939170	    -14.61687723	     11.79473989	      0.20585705	     21.78317642	     17.73466526	      0.00000000	      9.33637939	      4.72617574	     -2.17638784	     14.50803584	      0.25321299	     17.52952806	     -8.07628844	      0.00000000	      0.23520775	     -0.73038576	      0.33973608	      0.43680431	     -0.97141306	      0.36096958	      0.38642281	     -1.77585993	      0.36096958	      0.26881894	     -1.77585993	      0.29726907	      0.21841392	     -1.48940264	      0.27603556	      0.13439771	     -1.13136754	      0.25480206	      1.68006544	     -8.26226978	      1.88951015	      0.00000000	      0.00000000	     15.06066403	      5.39903440	    -14.00908978	     10.33871137	    -19.40829287	     58.18682112	     80.72995541	      5.14866633	    -25.81274916	      8.39231807	     12.55368699	    -16.93410106	     51.13746740	     83.90544784	     87.08171457	     13.71795115	     25.82709094
      2.50000000	     -0.10095460	     -5.57151469	    110.85521252	      0.35825278	      0.51857758	      0.94981302	      6.15189875	     -5.70923991	    -14.57614596	     11.75854002	      0.20522524	     21.80837697	     17.67475734	      0.00000000	      9.35150516	      4.57826060	     -2.77749517	     14.39102382	      0.25117075	     17.96209649	     -6.81795289	      0.00000000	      0.22709709	     -0.71828531	      0.28607906	      0.42174201	     -0.95531946	      0.30395900	      0.37309781	     -1.74643890	      0.30395900	      0.25954927	     -1.74643890	      0.25031918	      0.21088236	     -1.46472740	      0.23243924	      0.12976328	     -1.11262394	      0.21455930	      1.62213182	     -8.12538706	      1.59108591	      0.00000000	      0.00000000	     15.26226899	      5.67756088	    -12.80368116	     11.10306098	    -19.66940957	     59.24654340	     80.81424288	      4.88823548	    -25.02558755	      8.11572998	     12.77707086	    -17.07943063	     51.13695573	     83.83986134	     86.54201909	     14.09418537	     25.89805272
      2.52380952	     -0.08946421	     -5.55442785	    110.80066682	      0.35852269	      0.51839386	      0.94973492	      6.19314587	     -5.67894606	    -14.55836782	     11.73887946	      0.20488210	     21.86523935	     17.67166784	      0.00000000	      9.41450438	      4.54158051	     -2.81447327	     14.30721397	      0.24970799	     18.01904955	     -6.79015843	      0.00000000	      0.22130467	     -0.71808699	      0.26424112	      0.41098491	     -0.95505570	      0.28075619	      0.36358145	     -1.74595672	      0.28075619	      0.25292911	     -1.74595672	      0.23121098	      0.20550352	     -1.46432300	      0.21469591	      0.12645349	     -1.11231675	      0.19818084	      1.58075715	     -8.12314370	      1.46962982	      0.00000000	      0.00000000	     15.26658594	      5.66996911	    -12.74771023	     11.12185090	    -19.64898767	     59.26947235	     80.94438818	      4.88223100	    -25.00481938	      8.14577578	     12.88788647	    -17.12703597	     51.13128250	     83.74009499	     86.55546737	     14.11914009	     25.94194319
      2.54761905	      0.03789064	     -5.34708067	    110.94443707	      0.35861051	      0.51834814	      0.94973357	      6.03435024	     -5.44967520	    -14.41715083	     11.67798477	      0.20381928	     21.90218992	     17.29031388	      0.00000000	      9.18004929	      3.90041734	     -5.99650103	     14.06182244	      0.24542510	     19.15744368	     -1.58790906	      0.00000000	      0.20476635	     -0.67818616	      0.10062876	      0.38027159	     -0.90198760	      0.10691805	      0.33641064	     -1.64894184	      0.10691805	      0.23402746	     -1.64894184	      0.08805016	      0.19014603	     -1.38295722	      0.08176086	      0.11700349	     -1.05051037	      0.07547157	      1.46262556	     -7.67177751	      0.55966696	      0.00000000	      0.00000000	     15.20814805	      6.09850108	    -10.15841243	     11.99969999	    -19.69340481	     60.66275498	     80.69584306	      4.99359540	    -24.50001902	      9.52691849	     12.42511018	    -16.95789048	     49.80761748	     83.76108290	     86.79653499	     16.17372636	     26.92454680
      2.57142857	     -0.01974125	     -5.24616627	    110.93373236	      0.35867342	      0.51821168	      0.94958849	      5.94924986	     -5.46508270	    -14.32626174	     11.65044804	      0.20333868	     22.01357216	     17.12799464	      0.00000000	      8.92995777	      3.85643486	     -6.64509183	     13.74138954	      0.23983249	     19.31085228	     -0.44954473	      0.00000000	      0.19527117	     -0.67357738	      0.02965348	      0.36263809	     -0.89585792	      0.03150682	      0.32081101	     -1.63773605	      0.03150682	      0.22317542	     -1.63773605	      0.02594680	      0.18132881	     -1.37355900	      0.02409345	      0.11157795	     -1.04337137	      0.02224011	      1.39480244	     -7.61964209	      0.16492377	      0.00000000	      0.00000000	     14.96733959	      6.08094879	     -9.44744844	     12.13112554	    -19.58706369	     61.35432369	     80.56734862	      4.86630785	    -24.21605236	      9.78339605	     12.16741087	    -16.97401091	     49.38669972	     83.98169503	     86.84546820	     15.80133114	     27.26101687
      2.59523810	      0.00526374	     -5.15327182	    110.89605254	      0.35891570	      0.51792695	      0.94966765	      5.86867536	     -5.33397566	    -13.72580499	     11.50361898	      0.20077603	     22.07996862	     16.45174564	      0.00000000	      8.89604788	      3.67678198	     -7.50115539	     13.77706018	      0.24045506	     19.66045520	      1.02472585	      0.00000000	      0.19169409	     -0.65622757	     -0.06865905	      0.35599509	     -0.87278266	     -0.07295024	      0.31493422	     -1.59555171	     -0.07295024	      0.21908718	     -1.59555171	     -0.06007667	      0.17800713	     -1.33817925	     -0.05578548	      0.10953400	     -1.01649650	     -0.05149429	      1.36925172	     -7.42337748	     -0.38186106	      0.00000000	      0.00000000	     14.78749022	      6.19200025	     -8.07431335	     12.59175143	    -19.53897223	     62.85536636	     80.70194180	      3.97763361	    -25.14821212	      8.37501120	     11.69204115	    -16.90080330	     48.46148543	     84.22208671	     87.00357696	     16.16503232	     27.64043736
